<?xml version="1.0" encoding="UTF-8"?>
<svg version="1.1" xmlns="http://www.w3.org/2000/svg" width="450" height="360">
<path d="M0 0 C148.5 0 297 0 450 0 C450 118.8 450 237.6 450 360 C301.5 360 153 360 0 360 C0 241.2 0 122.4 0 0 Z " fill="#FEFEFE" transform="translate(0,0)"/>
<path d="M0 0 C1.40047182 0.00084795 2.80094497 0.00036786 4.20141602 -0.00132751 C7.97355007 -0.00218237 11.74539339 0.01535978 15.51746035 0.03639436 C19.47055844 0.05524707 23.42366442 0.05691833 27.37680054 0.06047058 C34.84930034 0.06976595 42.32166725 0.09434546 49.79410875 0.12451905 C58.30685638 0.15814152 66.81961061 0.17456873 75.33240819 0.18960536 C92.83154539 0.22089749 110.33055353 0.27360875 127.82958984 0.34057617 C124.71926283 1.97325296 122.30523657 2.69759077 118.79736328 3.06689453 C117.79078674 3.17739639 116.78421021 3.28789825 115.74713135 3.40174866 C114.6554364 3.51433517 113.56374146 3.62692169 112.43896484 3.74291992 C110.07364642 4.00110287 107.70841517 4.26008544 105.34326172 4.51977539 C104.10858154 4.65341492 102.87390137 4.78705444 101.60180664 4.92474365 C95.4278239 5.60533624 89.26176082 6.34994813 83.09521484 7.09448242 C81.86315308 7.24267426 80.63109131 7.39086609 79.36169434 7.54354858 C76.86006038 7.84455962 74.35847344 8.14596174 71.85693359 8.44775391 C68.04071719 8.90776189 64.22422051 9.36539688 60.40771484 9.82299805 C57.92853081 10.12168203 55.44936352 10.42050507 52.97021484 10.71948242 C51.85535706 10.85286514 50.74049927 10.98624786 49.59185791 11.12367249 C23.67937649 13.25350693 23.67937649 13.25350693 -0.17041016 22.34057617 C-0.85232422 22.73631836 -1.53423828 23.13206055 -2.23681641 23.53979492 C-13.03948343 30.5794977 -18.77683449 42.82319434 -21.71909714 54.97249603 C-23.22015892 62.84870267 -22.85864382 70.99130345 -22.79931641 78.97338867 C-22.80014761 81.02448655 -22.80261642 83.07558434 -22.80662537 85.12667847 C-22.80946355 89.39789188 -22.79497479 93.66857516 -22.76733398 97.93969727 C-22.73321169 103.37726328 -22.73930323 108.81388568 -22.75799656 114.25149727 C-22.76863077 118.4778105 -22.75957145 122.70390914 -22.74461174 126.93020248 C-22.73947941 128.93378942 -22.73985056 130.93739923 -22.74615669 132.94098282 C-22.77687612 148.55577998 -21.62317096 162.23457448 -12.17041016 175.34057617 C-11.65736328 176.05987305 -11.14431641 176.77916992 -10.61572266 177.52026367 C-4.83869325 184.84520526 3.65678039 189.62689236 12.82958984 191.34057617 C17.17798085 191.64392703 21.5185273 191.64145776 25.8762207 191.64355469 C27.18158783 191.65199402 28.48695496 191.66043335 29.83187866 191.66912842 C32.66587285 191.68735785 35.49980175 191.69942923 38.33384514 191.70666695 C42.85052805 191.71825376 47.36707035 191.7437693 51.88368225 191.77098083 C59.06661941 191.81262207 66.2495639 191.8450066 73.43256432 191.87345499 C86.19105457 191.92414216 98.94947629 191.98794486 111.70786959 192.05879539 C116.1600287 192.08313067 120.61217354 192.10270763 125.06437141 192.11829585 C144.66803635 192.19036735 164.2385308 192.62588975 183.82958984 193.34057617 C183.82958984 193.67057617 183.82958984 194.00057617 183.82958984 194.34057617 C183.12549988 194.38402664 182.42140991 194.42747711 181.69598389 194.47224426 C172.65705327 195.03039039 163.61827715 195.59100602 154.57958984 196.15307617 C153.84709518 196.19860626 153.11460052 196.24413635 152.35990906 196.29104614 C134.26225056 197.4163573 116.16765905 198.56890545 98.07958984 199.84057617 C76.40942709 201.36388466 54.72278918 202.61153167 33.03516006 203.85607338 C30.15049688 204.02176883 27.26589402 204.18850157 24.38129425 204.35529709 C22.39877625 204.46940645 20.41615603 204.58173555 18.43353271 204.69400024 C11.71962419 205.08159899 5.02012252 205.54194528 -1.6794281 206.12904358 C-15.89267304 207.33602319 -26.15867438 205.48218807 -37.60009766 196.66479492 C-48.45009825 186.85362417 -56.2680215 171.60415995 -57.3461628 156.95207405 C-57.63616456 149.96490132 -57.59085632 142.97295045 -57.56884766 135.98120117 C-57.57087274 133.70497545 -57.57378777 131.42875037 -57.57754517 129.15252686 C-57.58195165 124.39515979 -57.57559395 119.63796246 -57.56152344 114.88061523 C-57.54447196 108.82449877 -57.55425815 102.76878248 -57.57224083 96.71268082 C-57.58315751 92.01451687 -57.57959575 87.31644546 -57.57185745 82.6182785 C-57.56987513 80.38746848 -57.57224439 78.15664968 -57.57929611 75.92584991 C-57.63781223 52.20725872 -55.34241259 31.17085296 -38.35791016 13.09057617 C-27.11329106 2.36593946 -15.12550986 -0.12628469 0 0 Z " fill="#1467A5" transform="translate(136.17041015625,76.659423828125)"/>
<path d="M0 0 C1.28976746 -0.01779652 1.28976746 -0.01779652 2.60559082 -0.03595257 C11.96140519 -0.03135641 19.11065651 2.58530115 25.98828125 9.01879883 C35.21906157 19.20712897 39.845346 31.25047509 39.85717773 44.9387207 C39.86550125 45.77250244 39.87382477 46.60628418 39.88240051 47.46533203 C39.90634799 50.20195295 39.91525631 52.93833446 39.921875 55.67504883 C39.93085681 57.59826725 39.9399789 59.52148502 39.94923401 61.44470215 C39.96568804 65.47267343 39.97341688 69.50056199 39.97631836 73.52856445 C39.98168129 78.64783933 40.01929039 83.76631736 40.06506252 88.88536835 C40.09506278 92.85952464 40.10204695 96.83349493 40.10304451 100.80775452 C40.10720572 102.69250618 40.11947146 104.57726056 40.14056206 106.4618988 C40.32010786 123.901506 37.85826989 140.23021633 25.3828125 153.51489258 C18.5189615 159.95344472 11.31026201 164.33709121 1.74188232 164.32655334 C0.7771701 164.32792801 -0.18754211 164.32930267 -1.18148804 164.33071899 C-2.75889267 164.32532608 -2.75889267 164.32532608 -4.36816406 164.31982422 C-5.48065521 164.31997025 -6.59314636 164.32011627 -7.73934937 164.32026672 C-11.41870062 164.31956973 -15.09800133 164.31178722 -18.77734375 164.30395508 C-21.32753471 164.30209014 -23.87772603 164.3006666 -26.42791748 164.29966736 C-32.45559204 164.29623855 -38.48324489 164.288356 -44.51091075 164.27831787 C-51.37423195 164.26713645 -58.23755401 164.26164117 -65.10088205 164.25662243 C-79.21700434 164.24617284 -93.33311055 164.22858604 -107.44921875 164.20629883 C-107.44921875 163.87629883 -107.44921875 163.54629883 -107.44921875 163.20629883 C-105.43652344 162.95471191 -105.43652344 162.95471191 -103.42382812 162.703125 C-102.54029663 162.59268356 -101.65676514 162.48224213 -100.74645996 162.36845398 C-98.74328613 162.11805725 -96.7401123 161.86766052 -94.73693848 161.61726379 C-93.68808472 161.48615707 -92.63923096 161.35505035 -91.55859375 161.2199707 C-88.25390625 160.80688477 -88.25390625 160.80688477 -84.94921875 160.39379883 C-83.89927734 160.26255615 -82.84933594 160.13131348 -81.76757812 159.99609375 C-80.72923828 159.86630127 -79.69089844 159.73650879 -78.62109375 159.6027832 C-77.57854431 159.47246201 -76.53599487 159.34214081 -75.46185303 159.20787048 C-73.34031419 158.94268324 -71.21877283 158.67751617 -69.097229 158.41236877 C-63.69073676 157.73664721 -58.28429006 157.06056494 -52.87792969 156.38378906 C-51.81159302 156.25035599 -50.74525635 156.11692291 -49.64660645 155.97944641 C-47.64130044 155.72850849 -45.63600946 155.47745038 -43.6307373 155.22624207 C-38.13462315 154.53862407 -32.63724706 153.86375946 -27.13739014 153.2066803 C-15.05564743 151.65627517 -5.07884706 148.49864724 2.8671875 138.70239258 C8.54765302 130.2805423 11.79685244 120.92747895 11.80957031 110.76147461 C11.81307495 110.05314484 11.81657959 109.34481506 11.82019043 108.61502075 C11.82892965 106.29378196 11.8231852 103.97285276 11.81640625 101.65161133 C11.81775545 100.02407778 11.8196981 98.39654463 11.82220459 96.76901245 C11.82514554 93.36476794 11.82089254 89.96062871 11.81152344 86.55639648 C11.80014772 82.21351262 11.80668296 77.87087651 11.81866837 73.52800179 C11.82593038 70.16834685 11.82357888 66.80874964 11.81841278 63.44909286 C11.81708732 61.8488652 11.81868491 60.24863214 11.82337189 58.6484108 C11.85636509 44.21568801 10.55065021 32.44838347 0.6640625 21.02661133 C-8.22610579 12.62332852 -18.00485983 11.61511413 -29.80322266 11.66040039 C-31.22341027 11.65164891 -32.64358805 11.64115767 -34.06375122 11.6290741 C-37.88956291 11.60138577 -41.71505015 11.59780557 -45.54094744 11.59879398 C-49.55018787 11.59564999 -53.55928534 11.57000107 -57.56845093 11.54681396 C-65.14713308 11.50636369 -72.72572943 11.48593917 -80.30450284 11.47284007 C-88.93826261 11.4569327 -97.57187712 11.41850147 -106.20555234 11.37824678 C-123.95339512 11.29599815 -141.70122397 11.24181228 -159.44921875 11.20629883 C-159.44921875 10.54629883 -159.44921875 9.88629883 -159.44921875 9.20629883 C-158.30300049 9.13779221 -157.15678223 9.06928558 -155.97583008 8.998703 C-144.92419956 8.33808762 -133.87261158 7.67676442 -122.82106018 7.01482677 C-117.14570041 6.67491925 -111.47032823 6.33522264 -105.79492188 5.99609375 C-100.30264776 5.66790422 -94.81041761 5.33898585 -89.31820679 5.00973892 C-87.10860877 4.87744233 -84.89899358 4.74543228 -82.68936157 4.61370468 C-70.5119887 3.88772273 -58.33662941 3.1404629 -46.1640625 2.33764648 C-42.950282 2.12805566 -39.73647861 1.91881837 -36.52267456 1.709589 C-33.57017276 1.5150497 -30.61824035 1.31315308 -27.66625977 1.11088562 C-18.4449039 0.49737785 -9.24282258 0.06950918 0 0 Z " fill="#FEBE04" transform="translate(331.44921875,91.793701171875)"/>
<path d="M0 0 C4.1717729 1.66870916 6.0172671 2.61903706 9.25 5.375 C13.67766912 9.01131319 18.24230098 12.34950512 22.9375 15.625 C29.25406789 20.03818674 35.49522385 24.53898162 41.6875 29.125 C47.65993037 33.54589292 53.65406345 37.92845368 59.71020508 42.23388672 C64.61287528 45.71937324 69.49694401 49.23014979 74.375 52.75 C75.48113647 53.54676147 75.48113647 53.54676147 76.60961914 54.35961914 C81.44760825 57.85260033 86.23845921 61.40353416 91 65 C89.75817012 68.72548963 88.85851468 68.9042787 85.4609375 70.6796875 C84.49978027 71.18959229 83.53862305 71.69949707 82.54833984 72.22485352 C81.5011377 72.76940186 80.45393555 73.3139502 79.375 73.875 C77.16566401 75.04628777 74.95735481 76.21951409 72.75 77.39453125 C71.62207031 77.99346191 70.49414062 78.59239258 69.33203125 79.20947266 C64.30022945 81.91340249 59.33648969 84.73219468 54.375 87.5625 C45.95068731 92.35426462 37.47822298 97.04625949 28.95922852 101.66748047 C22.12217998 105.37779587 15.31876043 109.1451215 8.54370117 112.9675293 C5.72091184 114.54917644 3.07768619 115.9741046 0 117 C0 78.39 0 39.78 0 0 Z " fill="#F10101" transform="translate(193,124)"/>
<path d="M0 0 C9.99998891 -0.03038861 19.99997329 -0.05089936 30 -0.0625 C30.73275146 -0.06335602 31.46550293 -0.06421204 32.22045898 -0.06509399 C53.49456054 -0.08707622 74.74468204 -0.01524385 96 1 C96 1.33 96 1.66 96 2 C95.25815964 2.04567108 94.51631927 2.09134216 93.7519989 2.13839722 C86.62297472 2.57759509 79.494055 3.01844767 72.36523724 3.46098137 C68.7037487 3.6882208 65.04222795 3.91490626 61.38061523 4.14013672 C57.1325377 4.40152987 52.88458911 4.66494979 48.63671875 4.9296875 C47.93574947 4.97326134 47.2347802 5.01683517 46.51256943 5.06172943 C35.61821326 5.74144221 24.73250239 6.50702557 13.85295105 7.39694214 C-0.74917158 8.54466777 -0.74917158 8.54466777 -6 8 C-6.66 7.34 -7.32 6.68 -8 6 C-8 5.01 -8 4.02 -8 3 C-6.865625 2.87625 -5.73125 2.7525 -4.5625 2.625 C-3.386875 2.41875 -2.21125 2.2125 -1 2 C-0.67 1.34 -0.34 0.68 0 0 Z " fill="#1D6EA9" transform="translate(224,269)"/>
<path d="M0 0 C-1.32 0.33 -2.64 0.66 -4 1 C-4 1.99 -4 2.98 -4 4 C11.84 4.33 27.68 4.66 44 5 C44 5.33 44 5.66 44 6 C3.08 6 -37.84 6 -80 6 C-80 5.34 -80 4.68 -80 4 C-71.34140133 3.47422465 -62.68257664 2.95238436 -54.02344894 2.43539429 C-50.00151851 2.19514602 -45.97967479 1.95360632 -41.95800781 1.70898438 C-38.06782424 1.47240991 -34.17744133 1.23939866 -30.28690338 1.00872803 C-28.81188779 0.92067069 -27.33694479 0.8313875 -25.86208344 0.74078369 C-17.23417047 0.21167385 -8.64666766 -0.12906621 0 0 Z " fill="#FCC933" transform="translate(252,97)"/>
<path d="M0 0 C5 2 5 2 7 5 C6.01 5.495 6.01 5.495 5 6 C3.68721269 29.32824965 2.60093027 52.64188936 2 76 C1.01 76.495 1.01 76.495 0 77 C0 51.59 0 26.18 0 0 Z " fill="#F11213" transform="translate(193,124)"/>
<path d="M0 0 C46.86 0 93.72 0 142 0 C138.62978683 1.68510659 137.46050956 2.25446734 133.99609375 2.44921875 C133.25552734 2.49240234 132.51496094 2.53558594 131.75195312 2.58007812 C130.98818359 2.61552734 130.22441406 2.65097656 129.4375 2.6875 C128.66986328 2.73455078 127.90222656 2.78160156 127.11132812 2.83007812 C123.76436048 3.00807728 121.20728456 3.06909485 118 2 C116.38880106 1.89899733 114.77381712 1.85379035 113.15950012 1.84178162 C111.66400887 1.82709839 111.66400887 1.82709839 110.13830566 1.81211853 C108.49940369 1.80348534 108.49940369 1.80348534 106.82739258 1.79467773 C105.10035347 1.77982834 105.10035347 1.77982834 103.33842468 1.76467896 C99.52381462 1.73303198 95.7091921 1.70829379 91.89453125 1.68359375 C89.25322644 1.66302699 86.61192494 1.6420306 83.97062683 1.62062073 C77.72337523 1.57070791 71.47609813 1.52576385 65.22879666 1.48259836 C58.1163775 1.43321393 51.00400441 1.37830027 43.89162982 1.32291877 C29.26113017 1.2091204 14.63058467 1.10227668 0 1 C0 0.67 0 0.34 0 0 Z " fill="#3782B1" transform="translate(122,77)"/>
<path d="M0 0 C5.28 0 10.56 0 16 0 C16.495 1.485 16.495 1.485 17 3 C-18.64 3 -54.28 3 -91 3 C-91 2.67 -91 2.34 -91 2 C-45.955 1.505 -45.955 1.505 0 1 C0 0.67 0 0.34 0 0 Z " fill="#D0E1EA" transform="translate(240,266)"/>
<path d="M0 0 C4.3833185 0.52632649 8.66670963 0.6569817 13.07728577 0.625 C14.24504044 0.6228096 14.24504044 0.6228096 15.43638611 0.62057495 C17.10922454 0.61679993 18.78205911 0.61071686 20.45488167 0.60250854 C23.10839769 0.58962513 25.76186309 0.58319916 28.41540527 0.57836914 C34.04678086 0.56700037 39.67811438 0.54775763 45.3094635 0.52734375 C51.84352267 0.50367366 58.37755759 0.48330684 64.9116497 0.47140503 C67.51503646 0.46496334 70.11834791 0.45245832 72.72171021 0.43969727 C74.32981808 0.43606209 75.93792663 0.43271069 77.54603577 0.4296875 C78.26054398 0.42452118 78.97505219 0.41935486 79.71121216 0.41403198 C84.48253204 0.413537 89.03376926 0.8598545 93.7469635 1.52734375 C93.7469635 1.85734375 93.7469635 2.18734375 93.7469635 2.52734375 C56.1269635 2.52734375 18.5069635 2.52734375 -20.2530365 2.52734375 C-20.2530365 2.19734375 -20.2530365 1.86734375 -20.2530365 1.52734375 C-17.77524124 1.15947476 -15.29678818 0.80792494 -12.8155365 0.46484375 C-12.12782166 0.36107422 -11.44010681 0.25730469 -10.73155212 0.15039062 C-7.03682511 -0.3479679 -3.70220975 -0.50038718 0 0 Z " fill="#FDC41D" transform="translate(244.25303649902344,253.47265625)"/>
<path d="M0 0 C2 2 2 2 2.1953125 5.6953125 C2.182009 7.17200108 2.15814835 8.64862358 2.125 10.125 C2.11597656 10.87910156 2.10695313 11.63320312 2.09765625 12.41015625 C2.0740687 14.27357254 2.03819719 16.13682593 2 18 C1.34 17.34 0.68 16.68 0 16 C-0.33 16.66 -0.66 17.32 -1 18 C-1.99 18 -2.98 18 -4 18 C-3.48914188 11.56318772 -2.27057103 6.04057576 0 0 Z " fill="#1A6BA8" transform="translate(84,110)"/>
<path d="M0 0 C0 0.33 0 0.66 0 1 C-2.05078125 1.22786458 -4.1015625 1.45572917 -6.15234375 1.68359375 C-8.01140229 1.81886614 -8.01140229 1.81886614 -9 3 C-10.934419 3.12583966 -12.87402763 3.17578009 -14.8125 3.1875 C-15.87082031 3.20167969 -16.92914063 3.21585937 -18.01953125 3.23046875 C-20.9204626 3.00615034 -22.54818353 2.50196021 -25 1 C-16.64251778 0.15672251 -8.39802254 -0.12190678 0 0 Z " fill="#DAE7EF" transform="translate(157,281)"/>
<path d="M0 0 C0.66 0.66 1.32 1.32 2 2 C-1 5 -4 8 -7 11 C-7.92250763 7.98088413 -8.31690887 6.6004589 -6.8125 3.75 C-4.82312776 1.8292268 -3.67834213 1.44639035 -1 1 C-0.67 0.67 -0.34 0.34 0 0 Z " fill="#EBF2F5" transform="translate(98,87)"/>
<path d="M0 0 C2.64 0 5.28 0 8 0 C8 0.66 8 1.32 8 2 C9.98 2 11.96 2 14 2 C14 2.33 14 2.66 14 3 C9.05 3.33 4.1 3.66 -1 4 C-0.67 2.68 -0.34 1.36 0 0 Z " fill="#2672AB" transform="translate(220,79)"/>
<path d="M0 0 C1.64110092 0.20273678 3.28154235 0.41529699 4.91455078 0.67529297 C8.57499971 1.24522941 12.25796187 1.63684649 15.9375 2.0625 C16.71673828 2.15337891 17.49597656 2.24425781 18.29882812 2.33789062 C20.19912522 2.55939765 22.09954953 2.77981282 24 3 C24 3.33 24 3.66 24 4 C16.35628225 4.15528998 8.56737114 4.16590311 1 3 C0.34 2.34 -0.32 1.68 -1 1 C-0.67 0.67 -0.34 0.34 0 0 Z " fill="#2474AF" transform="translate(188,274)"/>
<path d="M0 0 C5.75 2.625 5.75 2.625 8 6 C6.68 6 5.36 6 4 6 C4 5.34 4 4.68 4 4 C2.824375 4.5259375 2.824375 4.5259375 1.625 5.0625 C0.325625 5.5265625 0.325625 5.5265625 -1 6 C-1.66 5.67 -2.32 5.34 -3 5 C-1.125 1.125 -1.125 1.125 0 0 Z " fill="#FBF8F1" transform="translate(323,106)"/>
<path d="M0 0 C4.04352289 0.46656033 8.01928836 1.15560662 12 2 C12 2.33 12 2.66 12 3 C5.4 3 -1.2 3 -8 3 C-8 2.67 -8 2.34 -8 2 C-6.865625 1.855625 -5.73125 1.71125 -4.5625 1.5625 C-1.19222799 1.38828522 -1.19222799 1.38828522 0 0 Z " fill="#1567A6" transform="translate(228,273)"/>
<path d="M0 0 C0.763125 0.309375 1.52625 0.61875 2.3125 0.9375 C4.18789677 1.67893593 6.08684652 2.36228217 8 3 C8 4.65 8 6.3 8 8 C1.25 4.375 1.25 4.375 -1 1 C-0.67 0.67 -0.34 0.34 0 0 Z " fill="#F9EBE8" transform="translate(236,152)"/>
<path d="M0 0 C-1.5 2 -1.5 2 -4 4 C-6.75871627 4.35800135 -9.20097524 4.18660165 -12 4 C-4.75 -1.69642857 -4.75 -1.69642857 0 0 Z " fill="#2370AB" transform="translate(118,80)"/>
<path d="M0 0 C0.33 0 0.66 0 1 0 C1.55573751 2.12136362 2.09421768 4.24725521 2.625 6.375 C2.92664063 7.55835938 3.22828125 8.74171875 3.5390625 9.9609375 C3.69117187 10.96382812 3.84328125 11.96671875 4 13 C3.34 13.66 2.68 14.32 2 15 C-0.07525903 12.50968916 -1.00649557 10.70910026 -0.9765625 7.44140625 C-0.71469818 4.94661777 -0.39910051 2.47634651 0 0 Z " fill="#2877AE" transform="translate(113,228)"/>
<path d="M0 0 C-2.50102448 2.76899139 -4.19447304 4.64323185 -8 5 C-9.33946251 4.69221909 -10.67412272 4.36185401 -12 4 C-10.56988027 3.13353333 -9.13059381 2.28218171 -7.6875 1.4375 C-6.48673828 0.72400391 -6.48673828 0.72400391 -5.26171875 -0.00390625 C-3 -1 -3 -1 0 0 Z " fill="#FAECEA" transform="translate(284,193)"/>
<path d="M0 0 C0.66 0.66 1.32 1.32 2 2 C0.37675914 2.22162329 -1.248721 2.42689803 -2.875 2.625 C-4.23238281 2.79902344 -4.23238281 2.79902344 -5.6171875 2.9765625 C-6.40351563 2.98429688 -7.18984375 2.99203125 -8 3 C-8.66 2.34 -9.32 1.68 -10 1 C-6.42894485 -1.33492068 -4.06144397 -1.05950712 0 0 Z " fill="#FBF6E0" transform="translate(314,242)"/>
<path d="M0 0 C0.33 0.66 0.66 1.32 1 2 C1.66 2 2.32 2 3 2 C5.60018816 5.90028225 5.15085514 9.47434569 5 14 C2.81385576 11.81385576 2.31743465 10.46120051 1.375 7.5625 C1.11460938 6.78003906 0.85421875 5.99757812 0.5859375 5.19140625 C0 3 0 3 0 0 Z " fill="#EFF5F8" transform="translate(114,230)"/>
<path d="M0 0 C0.33 0.99 0.66 1.98 1 3 C0.34 3 -0.32 3 -1 3 C-1 3.99 -1 4.98 -1 6 C-0.01 6 0.98 6 2 6 C1 8 1 8 -0.875 8.8125 C-1.57625 8.874375 -2.2775 8.93625 -3 9 C-3.99 8.01 -4.98 7.02 -6 6 C-4.02 4.02 -2.04 2.04 0 0 Z " fill="#FCC014" transform="translate(334,231)"/>
<path d="M0 0 C4.455 2.97 4.455 2.97 9 6 C8.67 6.99 8.34 7.98 8 9 C7.01 9.33 6.02 9.66 5 10 C3.33333333 6.66666667 1.66666667 3.33333333 0 0 Z " fill="#F01216" transform="translate(275,183)"/>
<path d="M0 0 C1.5625 1.25 1.5625 1.25 3 3 C2.6875 5.1875 2.6875 5.1875 2 7 C1.01 7 0.02 7 -1 7 C-1.33 7.66 -1.66 8.32 -2 9 C-2.66 9 -3.32 9 -4 9 C-2.80100302 5.9168649 -1.52299523 2.93720508 0 0 Z " fill="#FBC520" transform="translate(339,222)"/>
<path d="M0 0 C3.0916909 2.52956528 3.90931332 5.22454612 5 9 C4.01 9 3.02 9 2 9 C1.67 8.34 1.34 7.68 1 7 C0.01 7.33 -0.98 7.66 -2 8 C-1.34 5.36 -0.68 2.72 0 0 Z " fill="#FCC119" transform="translate(363,110)"/>
<path d="M0 0 C2.475 0.99 2.475 0.99 5 2 C3.35 3.65 1.7 5.3 0 7 C-1.32 6.34 -2.64 5.68 -4 5 C-3.34 5 -2.68 5 -2 5 C-2 4.34 -2 3.68 -2 3 C-1.34 3 -0.68 3 0 3 C0 2.01 0 1.02 0 0 Z " fill="#FCF8E7" transform="translate(325,233)"/>
<path d="M0 0 C2.71595986 3.1540179 3.96846241 4.87384964 5 9 C2.03 7.02 -0.94 5.04 -4 3 C-2.68 2.01 -1.36 1.02 0 0 Z " fill="#F8EBE9" transform="translate(265,170)"/>
<path d="M0 0 C0 0.33 0 0.66 0 1 C-1.65 1.33 -3.3 1.66 -5 2 C-5 2.99 -5 3.98 -5 5 C-6.65 5 -8.3 5 -10 5 C-9.67 4.34 -9.34 3.68 -9 3 C-9.99 2.34 -10.98 1.68 -12 1 C-7.9472484 0.01751476 -4.16138263 -0.08159574 0 0 Z " fill="#FDC425" transform="translate(284,248)"/>
<path d="M0 0 C0.763125 0.495 1.52625 0.99 2.3125 1.5 C4.92363751 3.24368308 4.92363751 3.24368308 8 3 C8 3.66 8 4.32 8 5 C7.34 5 6.68 5 6 5 C5.67 5.66 5.34 6.32 5 7 C2.69 5.35 0.38 3.7 -2 2 C-1.34 1.34 -0.68 0.68 0 0 Z " fill="#FAEEEA" transform="translate(216,137)"/>
<path d="M0 0 C0.969375 0.185625 1.93875 0.37125 2.9375 0.5625 C3.618125 0.706875 4.29875 0.85125 5 1 C5 1.33 5 1.66 5 2 C-0.44693314 2.09688221 -5.63904667 2.12862175 -11 1 C-7.20470362 -1.58080154 -4.36019696 -0.84144152 0 0 Z " fill="#1E6CA7" transform="translate(187,277)"/>
<path d="M0 0 C1.60031344 3.20062687 0.03173691 5.72271806 -1 9 C-3.52588702 6.63707344 -4.88820837 5.33537489 -6 2 C-4.7934375 1.7834375 -4.7934375 1.7834375 -3.5625 1.5625 C-1.07896294 1.25864751 -1.07896294 1.25864751 0 0 Z " fill="#1F6CA6" transform="translate(94,257)"/>
<path d="M0 0 C2.64 1.65 5.28 3.3 8 5 C7.67 5.99 7.34 6.98 7 8 C4.525 7.01 4.525 7.01 2 6 C2 5.34 2 4.68 2 4 C1.34 3.67 0.68 3.34 0 3 C0 2.01 0 1.02 0 0 Z " fill="#F20F12" transform="translate(242,159)"/>
<path d="M0 0 C3.96 0 7.92 0 12 0 C10.68 0.33 9.36 0.66 8 1 C8 1.66 8 2.32 8 3 C5.36 3 2.72 3 0 3 C0 2.01 0 1.02 0 0 Z " fill="#D7E4EC" transform="translate(288,272)"/>
<path d="M0 0 C2.4375 0.75 2.4375 0.75 5 2 C5.8125 4.125 5.8125 4.125 6 6 C3.69 5.34 1.38 4.68 -1 4 C-0.67 2.68 -0.34 1.36 0 0 Z " fill="#F30A0C" transform="translate(201,130)"/>
<path d="M0 0 C1.32 0 2.64 0 4 0 C4.33 2.31 4.66 4.62 5 7 C2 6 2 6 0 3 C0 2.01 0 1.02 0 0 Z " fill="#FAF9EF" transform="translate(361,104)"/>
<path d="M0 0 C-2.38573379 1.89213369 -4.07175348 3.02391783 -7 4 C-7.66 3.67 -8.32 3.34 -9 3 C-9 2.34 -9 1.68 -9 1 C-5.57367167 -0.61798838 -3.61944899 -1.34053666 0 0 Z " fill="#F00D0E" transform="translate(274,196)"/>
<path d="M0 0 C1.65 0.99 3.3 1.98 5 3 C4.67 4.32 4.34 5.64 4 7 C3.67 6.34 3.34 5.68 3 5 C1.68 5 0.36 5 -1 5 C-0.67 3.35 -0.34 1.7 0 0 Z " fill="#EE0B0C" transform="translate(221,144)"/>
<path d="M0 0 C0.66 0.33 1.32 0.66 2 1 C2.59355614 3.64860427 2.74209269 6.29197322 3 9 C2.01 9.33 1.02 9.66 0 10 C-1.2380014 6.42355152 -0.74926071 3.66305234 0 0 Z " fill="#216DAC" transform="translate(83,240)"/>
<path d="M0 0 C0.66 0.33 1.32 0.66 2 1 C0.125 5.75 0.125 5.75 -1 8 C-1.66 8 -2.32 8 -3 8 C-3.36923077 3.44615385 -3.36923077 3.44615385 -1.5 1.1875 C-1.005 0.795625 -0.51 0.40375 0 0 Z " fill="#FBC114" transform="translate(363,231)"/>
<path d="M0 0 C1.2065625 0.0309375 1.2065625 0.0309375 2.4375 0.0625 C2.4375 0.7225 2.4375 1.3825 2.4375 2.0625 C-1.94711538 5.0625 -1.94711538 5.0625 -4.5625 5.0625 C-3.43829114 0.08386076 -3.43829114 0.08386076 0 0 Z " fill="#F11114" transform="translate(240.5625,211.9375)"/>
<path d="M0 0 C2 1 2 1 2 1 Z M-5 1 C-3.35 1 -1.7 1 0 1 C0 3.31 0 5.62 0 8 C-0.66 7.67 -1.32 7.34 -2 7 C-2 6.34 -2 5.68 -2 5 C-2.99 4.34 -3.98 3.68 -5 3 C-5 2.34 -5 1.68 -5 1 Z " fill="#F6E1DF" transform="translate(285,184)"/>
<path d="M0 0 C0.99 0.33 1.98 0.66 3 1 C1.68 2.32 0.36 3.64 -1 5 C-2.32 4.34 -3.64 3.68 -5 3 C-2.6875 1.4375 -2.6875 1.4375 0 0 Z " fill="#F7EEEC" transform="translate(209,232)"/>
<path d="M0 0 C1.0625 1.8125 1.0625 1.8125 2 4 C1.67 4.99 1.34 5.98 1 7 C-0.98 5.68 -2.96 4.36 -5 3 C-3 1 -3 1 0 0 Z " fill="#F8F3EE" transform="translate(198,121)"/>
<path d="M0 0 C0.66 0 1.32 0 2 0 C1.64950425 3.24208567 1.43778819 4.61527704 -1.0625 6.8125 C-1.701875 7.204375 -2.34125 7.59625 -3 8 C-3.33 7.34 -3.66 6.68 -4 6 C-3.67 5.34 -3.34 4.68 -3 4 C-2.34 4 -1.68 4 -1 4 C-0.67 2.68 -0.34 1.36 0 0 Z " fill="#FBF8E6" transform="translate(333,227)"/>
<path d="M0 0 C0.66 0 1.32 0 2 0 C2.33 0.99 2.66 1.98 3 3 C-1.75 6 -1.75 6 -4 6 C-3.34 4.68 -2.68 3.36 -2 2 C-1.34 2 -0.68 2 0 2 C0 1.34 0 0.68 0 0 Z " fill="#F01414" transform="translate(213,226)"/>
<path d="M0 0 C2.25 -0.25 2.25 -0.25 5 0 C7.3125 2 7.3125 2 9 4 C8.34 4.66 7.68 5.32 7 6 C5.83054208 5.19152271 4.66449539 4.37810888 3.5 3.5625 C2.8503125 3.11003906 2.200625 2.65757812 1.53125 2.19140625 C1.0259375 1.79824219 0.520625 1.40507812 0 1 C0 0.67 0 0.34 0 0 Z " fill="#FAE3DE" transform="translate(244,160)"/>
<path d="M0 0 C2.29013653 3.4352048 2.17842973 4.985331 2 9 C1.01 9 0.02 9 -1 9 C-0.67 6.03 -0.34 3.06 0 0 Z " fill="#2C76B1" transform="translate(81,119)"/>
<path d="M0 0 C5.875 2.75 5.875 2.75 7 5 C4.03 4.67 1.06 4.34 -2 4 C-2 3.34 -2 2.68 -2 2 C-1.34 2 -0.68 2 0 2 C0 1.34 0 0.68 0 0 Z " fill="#FBC31C" transform="translate(348,95)"/>
<path d="M0 0 C-0.66 0.66 -1.32 1.32 -2 2 C-1.34 2.33 -0.68 2.66 0 3 C0 3.66 0 4.32 0 5 C-2.64 4.34 -5.28 3.68 -8 3 C-5.53387212 -0.1151089 -3.89156016 -0.31553191 0 0 Z " fill="#FCF3D7" transform="translate(349,90)"/>
<path d="M0 0 C0.66 0.33 1.32 0.66 2 1 C2.33 1.99 2.66 2.98 3 4 C0.69 4.33 -1.62 4.66 -4 5 C-3 2 -3 2 0 0 Z " fill="#F8EDEB" transform="translate(248,210)"/>
<path d="M0 0 C3.465 1.98 3.465 1.98 7 4 C4.07175348 4.97608217 2.04386724 5.08226668 -1 5 C-0.67 3.35 -0.34 1.7 0 0 Z " fill="#F0151A" transform="translate(268,178)"/>
<path d="M0 0 C1.258125 -0.04125 2.51625 -0.0825 3.8125 -0.125 C4.52019531 -0.14820312 5.22789062 -0.17140625 5.95703125 -0.1953125 C8 0 8 0 11 2 C6.58937864 3.0257259 4.07369424 3.03684712 0 1 C0 0.67 0 0.34 0 0 Z " fill="#E8F2F5" transform="translate(162,90)"/>
<path d="M0 0 C0.33 0.99 0.66 1.98 1 3 C-0.4375 5.6875 -0.4375 5.6875 -2 8 C-2.99 7.34 -3.98 6.68 -5 6 C-3.35 4.02 -1.7 2.04 0 0 Z " fill="#FBF7EB" transform="translate(361,239)"/>
<path d="M0 0 C2.88437779 1.29299694 4.87219421 2.65941363 7 5 C5.35 5 3.7 5 2 5 C1.34 3.35 0.68 1.7 0 0 Z " fill="#F21113" transform="translate(233,153)"/>
</svg>
