<?xml version="1.0" encoding="UTF-8"?>
<svg version="1.1" xmlns="http://www.w3.org/2000/svg" width="450" height="360">
<path d="M0 0 C-0.33 0.99 -0.66 1.98 -1 3 C-1.81823242 3.08451416 -2.63646484 3.16902832 -3.47949219 3.25610352 C-25.72624868 5.5809596 -47.88884599 8.38602618 -70.04589844 11.44946289 C-72.14773872 11.73879103 -74.24962645 12.0277747 -76.3515625 12.31640625 C-77.37863312 12.45795135 -78.40570374 12.59949646 -79.46389771 12.74533081 C-85.0036675 13.4974716 -90.54521248 14.18670227 -96.10205078 14.80102539 C-97.27375824 14.93069199 -98.4454657 15.06035858 -99.65267944 15.19395447 C-101.89316916 15.43789446 -104.13438009 15.67533308 -106.37637329 15.90504456 C-121.03820266 17.49183864 -131.71180903 22.63511732 -141.359375 33.875 C-153.74746818 49.92053021 -152.77277186 67.74007493 -152.8125 87.125 C-152.83571303 89.68882272 -152.86109207 92.25262678 -152.88867188 94.81640625 C-152.93912429 99.94707891 -152.96669272 105.07709787 -152.97509766 110.20800781 C-152.98278151 114.84481392 -153.01416686 119.47967586 -153.08485508 124.115839 C-153.11453244 126.14457431 -153.13736423 128.17327083 -153.15788269 130.20211792 C-153.18448708 132.72190462 -153.22210728 135.24161161 -153.27339172 137.76101685 C-153.38015243 152.00893279 -150.00538157 164.27783414 -142 176 C-142 176.66 -142 177.32 -142 178 C-141.34 178 -140.68 178 -140 178 C-140 178.66 -140 179.32 -140 180 C-139.01 180.33 -138.02 180.66 -137 181 C-136.443125 181.598125 -135.88625 182.19625 -135.3125 182.8125 C-127.68568251 190.02705709 -117.46333512 191.29357151 -107.39624023 191.31884766 C-106.46417252 191.32889328 -105.5321048 191.3389389 -104.5717926 191.34928894 C-101.48406513 191.38015641 -98.3964271 191.39722286 -95.30859375 191.4140625 C-93.11238445 191.43285664 -90.91618174 191.45243549 -88.71998596 191.4727478 C-82.84065111 191.52452852 -76.96129277 191.56398566 -71.08184814 191.60089111 C-66.22702397 191.63300781 -61.37227443 191.67273497 -56.51750755 191.71246719 C-33.41943791 191.90042731 -10.32154101 192.03162142 12.77734375 192.0234375 C13.62490297 192.02316181 14.4724622 192.02288612 15.34570503 192.02260208 C23.14731777 192.01885605 30.94882509 192.00675769 38.75036716 191.9725132 C40.85115922 191.96365346 42.95194859 191.95667936 45.05274963 191.9503479 C47.55768154 191.94206343 50.06260485 191.92965863 52.56748962 191.91220093 C53.64736649 191.90894806 54.72724335 191.90569519 55.83984375 191.90234375 C57.23771118 191.89448853 57.23771118 191.89448853 58.66381836 191.88647461 C61 192 61 192 64 193 C64 193.66 64 194.32 64 195 C54.42586958 195.61779558 44.8517319 196.23547858 35.27758884 196.85307837 C33.78596005 196.94929966 32.2943314 197.04552309 30.8027029 197.14174891 C10.70939363 198.43797507 -9.38403521 199.73232955 -29.47764015 201.02396488 C-38.47457606 201.60233865 -47.4714681 202.18137972 -56.46826172 202.76196289 C-64.41735038 203.2749336 -72.36651847 203.78665315 -80.315781 204.29692262 C-84.48945447 204.56487497 -88.66308924 204.83339738 -92.83662796 205.10344124 C-122.45685168 207.01913197 -122.45685168 207.01913197 -135.31005859 207.67358398 C-136.12637064 207.717566 -136.94268269 207.76154802 -137.78373146 207.80686283 C-150.58235856 208.4144341 -160.26617678 204.89466775 -170.1875 196.75 C-171.115625 195.8425 -172.04375 194.935 -173 194 C-173 193.34 -173 192.68 -173 192 C-173.66 192 -174.32 192 -175 192 C-184.33322899 179.11125521 -189.31833117 165.73014058 -189.2746582 149.79296875 C-189.27976913 148.81434372 -189.28488007 147.83571869 -189.29014587 146.82743835 C-189.30396603 143.61406209 -189.30308984 140.40090234 -189.30078125 137.1875 C-189.30467423 134.93180259 -189.30901013 132.67610591 -189.31376648 130.42041016 C-189.32121388 125.69642765 -189.32094953 120.97251989 -189.31567383 116.24853516 C-189.30990177 110.23840992 -189.32676274 104.22859514 -189.3500185 98.21852112 C-189.36486351 93.55806736 -189.36561265 88.89768635 -189.36250877 84.23721313 C-189.36301727 82.02397043 -189.3681649 79.81072313 -189.37832069 77.59750366 C-189.54512726 36.14067083 -189.54512726 36.14067083 -177 21 C-176.34 21 -175.68 21 -175 21 C-174.7421875 20.41992188 -174.484375 19.83984375 -174.21875 19.2421875 C-169.79059633 11.09552017 -160.818237 4.82543738 -152.10819817 2.09271431 C-144.16351842 0.19729153 -136.76041373 -0.41099419 -128.60986328 -0.32470703 C-126.70730522 -0.32295471 -126.70730522 -0.32295471 -124.76631165 -0.32116699 C-122.03702655 -0.31848934 -119.30801428 -0.30642652 -116.5788002 -0.28662491 C-112.25760054 -0.25527357 -107.9365012 -0.24528041 -103.61520386 -0.23776245 C-96.78153547 -0.22334895 -89.94801675 -0.19448062 -83.11442554 -0.15951526 C-70.86742512 -0.09732267 -58.62033468 -0.05990651 -46.37322223 -0.02792251 C-42.08244423 -0.01614112 -37.79175431 0.0020036 -33.50102544 0.02559257 C-31.47584016 0.03612187 -29.45065991 0.04440163 -27.42546082 0.05175781 C-24.9636102 0.06090341 -22.50176928 0.07375187 -20.03996277 0.09109497 C-13.90913239 0.10770134 -5.71891113 -2.05880801 0 0 Z " fill="#1366A3" transform="translate(267,76)"/>
<path d="M0 0 C0.87124512 -0.0213501 1.74249023 -0.0427002 2.64013672 -0.06469727 C12.07068243 -0.11402959 19.47100384 2.43473259 26.69140625 8.5625 C29.69059143 11.79166965 31.92481717 15.13218379 34.125 18.9375 C34.49044922 19.55971436 34.85589844 20.18192871 35.23242188 20.82299805 C41.75171545 32.91872475 41.6383858 46.12778051 41.5859375 59.47265625 C41.58796404 61.30863052 41.59088027 63.14460401 41.59463501 64.98057556 C41.59903 68.80719757 41.59271846 72.6336079 41.57861328 76.46020508 C41.56151096 81.33406175 41.57138731 86.20742301 41.58933067 91.08126163 C41.600235 94.86567332 41.59669208 98.64996991 41.5889473 102.4343853 C41.58696425 104.23030088 41.5893369 106.02622736 41.59638596 107.8221302 C41.65192995 125.94165995 38.76967433 141.80019803 26.1875 155.75 C19.2277327 162.52899412 9.99098548 166.33235197 0.33427429 166.40821838 C-1.08961357 166.42290161 -1.08961357 166.42290161 -2.54226685 166.43788147 C-3.57157318 166.44363693 -4.60087952 166.4493924 -5.66137695 166.45532227 C-7.30107201 166.47017166 -7.30107201 166.47017166 -8.97389221 166.48532104 C-12.58283328 166.51687879 -16.19178751 166.54167095 -19.80078125 166.56640625 C-22.30470622 166.58698071 -24.80862775 166.60797731 -27.31254578 166.62937927 C-33.22682196 166.67891178 -39.141121 166.72419027 -45.05544585 166.76740164 C-52.45171329 166.8217016 -59.84792377 166.88261751 -67.24414062 166.94335938 C-80.43355497 167.05087869 -93.62300782 167.1525214 -106.8125 167.25 C-107.8025 165.27 -107.8025 165.27 -108.8125 163.25 C-107.66499268 163.13317871 -106.51748535 163.01635742 -105.33520508 162.89599609 C-93.70393744 161.69929076 -82.09993411 160.3427514 -70.5 158.875 C-69.646409 158.76739349 -68.79281799 158.65978699 -67.9133606 158.54891968 C-62.70268403 157.89184424 -57.49262404 157.23004742 -52.28295898 156.56500244 C-49.91209426 156.26269903 -47.54103429 155.96197469 -45.16992188 155.66162109 C-41.0289354 155.13623741 -36.88937033 154.60047058 -32.75 154.0625 C-31.5333667 153.90797363 -30.3167334 153.75344727 -29.06323242 153.59423828 C-21.77782085 152.63369658 -15.03994108 151.66364547 -8.5 148.125 C-5.01687956 146.25 -5.01687956 146.25 -2.8125 146.25 C-2.8125 145.59 -2.8125 144.93 -2.8125 144.25 C-1.1688186 142.56066078 0.5017876 140.89740076 2.1875 139.25 C9.59072762 131.39809191 11.21592019 121.23786762 11.42456055 110.80249023 C11.45096115 109.56687851 11.47736176 108.33126678 11.50456238 107.05821228 C11.52820929 105.72501363 11.55141673 104.39180712 11.57421875 103.05859375 C11.59994098 101.6672403 11.62572437 100.27588799 11.65156555 98.88453674 C11.70435666 95.97214354 11.75327963 93.05971255 11.80004883 90.1472168 C11.86008432 86.45483182 11.93442993 82.76288885 12.01242352 79.0708456 C12.07068026 76.19579711 12.11865728 73.32063847 12.164011 70.44536018 C12.19813549 68.43491433 12.24253809 66.4246511 12.28727722 64.41441345 C12.45502305 51.96348554 11.36102776 40.64967805 6.1875 29.25 C5.8575 28.26 5.5275 27.27 5.1875 26.25 C4.5275 26.25 3.8675 26.25 3.1875 26.25 C1.85546875 24.82421875 1.85546875 24.82421875 0.375 22.9375 C-3.46563481 18.32314507 -6.85315223 16.21638072 -12.8125 15.25 C-13.8025 14.755 -13.8025 14.755 -14.8125 14.25 C-16.56942453 14.13004589 -18.33076072 14.07268211 -20.09155273 14.04467773 C-21.21343994 14.02473251 -22.33532715 14.00478729 -23.49121094 13.98423767 C-24.73032227 13.96752518 -25.96943359 13.95081268 -27.24609375 13.93359375 C-28.5503833 13.91281265 -29.85467285 13.89203156 -31.19848633 13.87062073 C-34.79620355 13.81428179 -38.39398765 13.76515642 -41.99183273 13.71777344 C-44.245405 13.6875616 -46.4989378 13.65524063 -48.75247192 13.62231445 C-67.11631951 13.35630545 -85.47793171 13.213592 -103.84375 13.22265625 C-104.70298632 13.22304838 -105.56222263 13.22344051 -106.44749641 13.22384453 C-114.87242178 13.22906609 -123.2972577 13.24450825 -131.72212029 13.27777004 C-134.84871766 13.28949145 -137.97531919 13.29765912 -141.10192871 13.30537224 C-143.25068841 13.31231296 -145.39936459 13.32492959 -147.5480957 13.33778381 C-149.47419678 13.34267067 -149.47419678 13.34267067 -151.43920898 13.34765625 C-152.55537094 13.35289307 -153.6715329 13.35812988 -154.82151794 13.36352539 C-157.60356724 13.25793023 -160.10750777 12.88567857 -162.8125 12.25 C-162.8125 11.59 -162.8125 10.93 -162.8125 10.25 C-159.81642587 9.4033937 -157.02279662 9.06171295 -153.91601562 8.90869141 C-152.44534386 8.83306976 -152.44534386 8.83306976 -150.94496155 8.75592041 C-149.34798683 8.67951324 -149.34798683 8.67951324 -147.71875 8.6015625 C-145.4061674 8.48358517 -143.09358607 8.3655828 -140.78100586 8.24755859 C-139.56283173 8.18687195 -138.34465759 8.1261853 -137.08956909 8.06365967 C-117.629982 7.09167871 -98.18499162 6.00547841 -78.75 4.625 C-66.7420742 3.77292888 -54.74642297 2.94115148 -42.71264648 2.54052734 C-36.71975427 2.33682774 -30.77983199 1.83251836 -24.8125 1.25 C-16.54257389 0.48004136 -8.30320371 0.10570365 0 0 Z " fill="#FCBE05" transform="translate(330.8125,90.75)"/>
<path d="M0 0 C3.67573014 0.80506323 5.85380015 2.1555299 8.875 4.4375 C13.13440735 7.61228373 17.41759841 10.73893112 21.75 13.8125 C30.76613399 20.23533995 39.67862467 26.79828565 48.57421875 33.38671875 C58.28893114 40.57572533 68.08074941 47.63417785 77.97460938 54.57421875 C81.34901875 56.94964676 84.70623382 59.34903515 88.0625 61.75 C88.66489502 62.18086914 89.26729004 62.61173828 89.88793945 63.05566406 C91.25891643 64.03670406 92.62950704 65.01828396 94 66 C92.74968354 69.75094939 91.12783357 70.22331364 87.73120117 71.95581055 C86.99490479 72.32101807 86.2586084 72.68622559 85.5 73.0625 C79.26862578 76.24666011 73.18778013 79.58665007 67.1875 83.1875 C62.53017214 85.97147458 57.88788614 88.63274273 53 91 C47.40184009 93.7114897 42.12116598 96.84428699 36.78930664 100.03588867 C30.51090449 103.76467171 24.0932089 107.18287789 17.59545898 110.51269531 C13.13416401 112.81311844 8.89581269 115.26820257 4.72875977 118.07104492 C3 119 3 119 0 119 C-1.30983601 115.07049196 -1.08444836 111.36354573 -1.02172852 107.27197266 C-1.01212097 106.37867752 -1.00251343 105.48538239 -0.99261475 104.5650177 C-0.95953109 101.59795499 -0.91917642 98.63103566 -0.87890625 95.6640625 C-0.85457244 93.58874057 -0.83073058 91.51341281 -0.80735779 89.43807983 C-0.74440605 83.95188421 -0.67547683 78.46578012 -0.60510254 72.97967529 C-0.49442022 64.26415616 -0.39343101 55.54851775 -0.29112053 46.83289719 C-0.25499473 43.81741979 -0.21678354 40.80197528 -0.17811584 37.78652954 C-0.02090072 25.19033285 0.02963209 12.59713524 0 0 Z " fill="#EF0101" transform="translate(192,123)"/>
<path d="M0 0 C-0.33 1.32 -0.66 2.64 -1 4 C15.67879347 5.16478734 32.36803066 5.31027641 49.08105469 5.52606201 C53.66999823 5.58550931 58.2588205 5.65139094 62.84765625 5.71875 C64.62910789 5.73911316 64.62910789 5.73911316 66.44654846 5.7598877 C83.01325915 6.00662958 83.01325915 6.00662958 87 8 C86.67 9.32 86.34 10.64 86 12 C79.47383701 10.20850428 79.47383701 10.20850428 76.61294556 8.94961548 C73.71226326 7.89542864 71.46090668 7.72343552 68.38037109 7.68115234 C66.69788017 7.65134781 66.69788017 7.65134781 64.98139954 7.62094116 C63.14595833 7.60361435 63.14595833 7.60361435 61.2734375 7.5859375 C59.97339279 7.56657135 58.67334808 7.5472052 57.33390808 7.5272522 C53.76090638 7.47500106 50.18786571 7.43570651 46.61467361 7.39910889 C44.37480955 7.37499795 42.13503202 7.34690697 39.89523315 7.31738281 C21.59039772 7.07631883 3.28686293 6.9700984 -15.01953125 6.9765625 C-15.8791169 6.97683819 -16.73870255 6.97711388 -17.62433624 6.97739792 C-26.05309963 6.98133426 -34.48176868 6.99423954 -42.91047001 7.0274868 C-46.03684703 7.03925834 -49.16322842 7.04749318 -52.28961754 7.0553093 C-54.43829855 7.06231165 -56.58689727 7.07494732 -58.73554993 7.08779907 C-60.01963242 7.09105194 -61.3037149 7.09430481 -62.62670898 7.09765625 C-63.74287094 7.10289307 -64.8590329 7.10812988 -66.00901794 7.11352539 C-68.79106724 7.00793023 -71.29500777 6.63567857 -74 6 C-74 5.34 -74 4.68 -74 4 C-70.85460186 3.10093166 -67.8906917 2.78769001 -64.62744141 2.61108398 C-63.5517691 2.55109726 -62.4760968 2.49111053 -61.36782837 2.42930603 C-60.20746063 2.36884598 -59.0470929 2.30838593 -57.8515625 2.24609375 C-56.6474472 2.18092056 -55.44333191 2.11574738 -54.20272827 2.04859924 C-51.64908931 1.91141876 -49.09534365 1.77621264 -46.54150391 1.64282227 C-42.67447649 1.4400938 -38.80794981 1.22931153 -34.94140625 1.01757812 C-32.45315105 0.88492719 -29.96487047 0.75275118 -27.4765625 0.62109375 C-26.33643707 0.55860947 -25.19631165 0.49612518 -24.02163696 0.43174744 C-16.00864831 0.02042408 -8.02281299 -0.06767094 0 0 Z " fill="#F3B721" transform="translate(242,97)"/>
<path d="M0 0 C-0.33 0.99 -0.66 1.98 -1 3 C-1.92820557 3.10022461 -2.85641113 3.20044922 -3.81274414 3.30371094 C-8.229689 3.78256846 -12.64621728 4.2650783 -17.0625 4.75 C-18.26959122 4.88239075 -18.26959122 4.88239075 -19.50106812 5.01745605 C-32.41926495 6.43939572 -45.30965282 8.01746397 -58.18579102 9.78027344 C-63.83570553 10.53883561 -69.29689416 11.23587439 -75 11 C-74 9 -74 9 -72.25 8.3671875 C-67.38863965 7.30376492 -62.98744838 6.92329392 -58.01953125 7.0625 C-55.37853508 6.98076704 -53.33317637 6.20422006 -51 5 C-53.31 5.33 -55.62 5.66 -58 6 C-58.33 5.34 -58.66 4.68 -59 4 C-65.93 3.67 -72.86 3.34 -80 3 C-80.33 2.01 -80.66 1.02 -81 0 C-80.13857895 0.00222061 -79.2771579 0.00444122 -78.38963318 0.00672913 C-70.25378744 0.0268034 -62.11795008 0.04201048 -53.98208523 0.05181217 C-49.79981361 0.05702078 -45.61756253 0.06408157 -41.43530273 0.07543945 C-37.39582684 0.08634037 -33.35637065 0.09229206 -29.31688118 0.09487724 C-27.77919263 0.09671853 -26.24150511 0.10031405 -24.703825 0.10573006 C-22.54267966 0.11303621 -20.38161477 0.11398693 -18.22045898 0.11352539 C-16.37846169 0.11685631 -16.37846169 0.11685631 -14.49925232 0.12025452 C-0.95856067 -0.34508184 -0.95856067 -0.34508184 0 0 Z " fill="#08658E" transform="translate(267,76)"/>
<path d="M0 0 C0 0.66 0 1.32 0 2 C33 2 66 2 100 2 C96.29249094 3.85375453 95.14629432 4.25237919 91.26702881 4.2784729 C90.3191449 4.28963638 89.37126099 4.30079987 88.39465332 4.31230164 C87.36175171 4.31446182 86.3288501 4.31662201 85.26464844 4.31884766 C83.62517242 4.33391609 83.62517242 4.33391609 81.95257568 4.34928894 C78.33818083 4.38019136 74.72386029 4.39717591 71.109375 4.4140625 C68.60401772 4.43276844 66.09866677 4.45234142 63.59332275 4.4727478 C57.67193873 4.51888249 51.75054037 4.55626903 45.82907319 4.58942068 C38.42504421 4.63140833 31.02112761 4.68697262 23.6171875 4.7421875 C10.41151943 4.8390254 -2.79419765 4.92378241 -16 5 C-16.66 3.68 -17.32 2.36 -18 1 C-11.95170514 0.10395632 -6.1105424 -0.11269443 0 0 Z " fill="#E6B73A" transform="translate(240,253)"/>
<path d="M0 0 C19.8 0.495 19.8 0.495 40 1 C40 1.66 40 2.32 40 3 C41.32 3.33 42.64 3.66 44 4 C43 6 43 6 40.68359375 7.0234375 C35.52818635 8.3901945 30.35220314 8.99626633 25.0625 9.625 C24.00353516 9.7590625 22.94457031 9.893125 21.85351562 10.03125 C16.52993532 10.68216812 11.36296555 11.16783107 6 11 C7 9 7 9 8.75 8.3671875 C13.61136035 7.30376492 18.01255162 6.92329392 22.98046875 7.0625 C25.62146492 6.98076704 27.66682363 6.20422006 30 5 C27.69 5.33 25.38 5.66 23 6 C22.67 5.34 22.34 4.68 22 4 C15.07 3.67 8.14 3.34 1 3 C0.67 2.01 0.34 1.02 0 0 Z " fill="#0D62A4" transform="translate(186,76)"/>
<path d="M0 0 C0.495 1.485 0.495 1.485 1 3 C0.28972656 3.04898438 -0.42054688 3.09796875 -1.15234375 3.1484375 C-2.53099609 3.26058594 -2.53099609 3.26058594 -3.9375 3.375 C-4.85402344 3.44460937 -5.77054687 3.51421875 -6.71484375 3.5859375 C-7.46894531 3.72257813 -8.22304688 3.85921875 -9 4 C-9.33 4.66 -9.66 5.32 -10 6 C-9.34 6.33 -8.68 6.66 -8 7 C-11.78842473 9.52561648 -14.78533329 9.25391573 -19.16796875 9.1953125 C-20.36018791 9.19106766 -20.36018791 9.19106766 -21.57649231 9.18673706 C-24.11364838 9.17554705 -26.65045072 9.15044491 -29.1875 9.125 C-30.90819802 9.11496866 -32.62890159 9.10584308 -34.34960938 9.09765625 C-38.56654243 9.07561161 -42.78321125 9.04109006 -47 9 C-46.67 8.01 -46.34 7.02 -46 6 C-44.81970215 5.85377197 -43.6394043 5.70754395 -42.42333984 5.55688477 C-38.0286512 5.01208655 -33.634169 4.46563839 -29.23974609 3.91870117 C-27.34071317 3.68257632 -25.44162516 3.4468941 -23.54248047 3.21166992 C-20.80681863 2.87275739 -18.07136132 2.53223385 -15.3359375 2.19140625 C-14.49195404 2.08719864 -13.64797058 1.98299103 -12.77841187 1.87562561 C-8.5000529 1.34093168 -4.24770105 0.74800393 0 0 Z " fill="#F6B818" transform="translate(287,246)"/>
<path d="M0 0 C0 0.66 0 1.32 0 2 C-0.86052979 2.05534912 -1.72105957 2.11069824 -2.60766602 2.16772461 C-5.87867099 2.37819905 -9.14966576 2.58883088 -12.4206543 2.79956055 C-13.82169206 2.88979038 -15.22273358 2.97996202 -16.6237793 3.07006836 C-17.98453834 3.15759113 -19.34529171 3.24520225 -20.70603943 3.332901 C-22.07668124 3.42121058 -23.44733772 3.50929271 -24.81800842 3.59715271 C-28.25037059 3.81812545 -31.68205245 4.04587614 -35.11303711 4.28735352 C-37.06802124 4.42355103 -37.06802124 4.42355103 -39.0625 4.5625 C-40.79886719 4.68625 -40.79886719 4.68625 -42.5703125 4.8125 C-48.04703124 5.11191059 -53.51733087 5.08321083 -59 5 C-59 4.67 -59 4.34 -59 4 C-55.7 4 -52.4 4 -49 4 C-49 3.34 -49 2.68 -49 2 C-52.3 2 -55.6 2 -59 2 C-59 1.34 -59 0.68 -59 0 C-51.72273955 -0.1687803 -44.44532091 -0.32856474 -37.16772461 -0.48217773 C-34.69339556 -0.53545702 -32.2191095 -0.59077471 -29.74487305 -0.64819336 C-26.18287424 -0.73049793 -22.62078377 -0.8054049 -19.05859375 -0.87890625 C-17.95728622 -0.90594131 -16.8559787 -0.93297638 -15.72129822 -0.96083069 C-10.3465595 -1.06463371 -5.29119016 -0.97789887 0 0 Z " fill="#125A8E" transform="translate(331,269)"/>
<path d="M0 0 C2.7824349 1.39121745 3.55210065 3.30164212 5 6 C5 6.66 5 7.32 5 8 C5.66 8 6.32 8 7 8 C7 8.66 7 9.32 7 10 C7.99 10.33 8.98 10.66 10 11 C10.556875 11.598125 11.11375 12.19625 11.6875 12.8125 C19.37878296 20.08803794 29.67136034 21.29390428 39.8125 21.31884766 C40.75976456 21.32889328 41.70702911 21.3389389 42.68299866 21.34928894 C45.78866006 21.37997888 48.89423582 21.3971165 52 21.4140625 C54.1633375 21.43278556 56.32666779 21.45235982 58.48999023 21.4727478 C64.16489396 21.52395466 69.83982133 21.56364159 75.51483154 21.60089111 C81.31333206 21.64100263 87.11173518 21.69206232 92.91015625 21.7421875 C104.27336897 21.83881123 115.63663682 21.92325926 127 22 C127 22.33 127 22.66 127 23 C114.21296637 23.1539859 101.42587985 23.30216596 88.63869381 23.4429636 C82.70090492 23.50852545 76.76315263 23.57607621 70.82543945 23.64819336 C65.09372533 23.71773499 59.36197402 23.78202467 53.63015938 23.84269524 C51.44492014 23.86674452 49.25970077 23.89267637 47.07450676 23.92053413 C44.01055886 23.95927098 40.94660824 23.99127423 37.88256836 24.02172852 C36.53173409 24.04114754 36.53173409 24.04114754 35.15361023 24.06095886 C30.31547838 24.10137782 25.76961794 23.82513933 21 23 C21 23.66 21 24.32 21 25 C20.01 24.67 19.02 24.34 18 24 C18.33 23.01 18.66 22.02 19 21 C18.071875 20.566875 17.14375 20.13375 16.1875 19.6875 C13.48670268 18.25766613 11.99855536 17.1984109 10 15 C9.34 14.67 8.68 14.34 8 14 C8 13.34 8 12.68 8 12 C7.360625 11.731875 6.72125 11.46375 6.0625 11.1875 C4 10 4 10 3 7 C2.01 6.34 1.02 5.68 0 5 C-0.1875 2.375 -0.1875 2.375 0 0 Z " fill="#23638D" transform="translate(120,246)"/>
<path d="M0 0 C0.92208252 -0.01297119 1.84416504 -0.02594238 2.79418945 -0.03930664 C3.66003662 -0.04051514 4.52588379 -0.04172363 5.41796875 -0.04296875 C6.58042114 -0.04913208 6.58042114 -0.04913208 7.76635742 -0.05541992 C9.8125 0.1875 9.8125 0.1875 12.8125 2.1875 C9.83013244 3.05732169 7.24889932 3.2836127 4.1484375 3.21484375 C2.7394519 3.19417847 2.7394519 3.19417847 1.30200195 3.1730957 C0.27421631 3.15722412 -0.75356934 3.14135254 -1.8125 3.125 C-12.19543845 3.05364751 -22.51409874 3.38583347 -32.875 4 C-33.58595825 4.04209595 -34.2969165 4.08419189 -35.02941895 4.12756348 C-47.01993024 4.856336 -58.96154859 5.95644175 -70.8972168 7.30981445 C-72.06293213 7.43831787 -73.22864746 7.56682129 -74.4296875 7.69921875 C-75.4491748 7.81740967 -76.46866211 7.93560059 -77.51904297 8.05737305 C-80.05011576 8.18080048 -81.82969483 8.09525837 -84.1875 7.1875 C-84.5175 6.5275 -84.8475 5.8675 -85.1875 5.1875 C-79.53578313 4.77662768 -73.88392297 4.36780001 -68.23193359 3.96069336 C-66.31783258 3.82255411 -64.40376861 3.68390044 -62.48974609 3.54467773 C-52.01739873 2.78330235 -41.54703557 2.05446139 -31.06069946 1.51295471 C-26.82384922 1.29223348 -22.601723 0.99052215 -18.375 0.625 C-12.2494433 0.17819469 -6.13945246 0.04634925 0 0 Z " fill="#F3C02D" transform="translate(331.1875,90.8125)"/>
<path d="M0 0 C5.50189249 3.00103227 10.51538929 6.41697441 15.5625 10.125 C17.14429151 11.27767281 18.72632599 12.43001227 20.30859375 13.58203125 C21.09218262 14.1538916 21.87577148 14.72575195 22.68310547 15.31494141 C26.1486137 17.83537742 29.6351436 20.32593739 33.125 22.8125 C33.72256104 23.23869629 34.32012207 23.66489258 34.93579102 24.10400391 C36.29020169 25.06979279 37.6450446 26.03497549 39 27 C38.505 28.485 38.505 28.485 38 30 C37.505 28.515 37.505 28.515 37 27 C34.70465742 25.86454438 34.70465742 25.86454438 32 25 C30.33333333 24.33333333 28.66666667 23.66666667 27 23 C26.67 23.66 26.34 24.32 26 25 C25.505 22.525 25.505 22.525 25 20 C23.35 20 21.7 20 20 20 C19.9175 19.38125 19.835 18.7625 19.75 18.125 C19.19418495 15.85214021 19.19418495 15.85214021 17.125 14.8125 C15.43247845 14.16535941 13.71903407 13.57301136 12 13 C11.3125 10.9375 11.3125 10.9375 11 9 C10.443125 8.938125 9.88625 8.87625 9.3125 8.8125 C6.04903513 7.66587721 4.35945094 5.48044843 2 3 C1.01 2.34 0.02 1.68 -1 1 C-0.67 0.67 -0.34 0.34 0 0 Z " fill="#D61316" transform="translate(247,162)"/>
<path d="M0 0 C2.5625718 -0.02710123 5.12485365 -0.04688771 7.6875 -0.0625 C8.40873047 -0.07087891 9.12996094 -0.07925781 9.87304688 -0.08789062 C13.71555382 -0.10543632 17.26639526 0.06475779 21 1 C21 1.33 21 1.66 21 2 C16.53865427 2.29014373 12.07699398 2.574695 7.61499023 2.85449219 C6.10317819 2.95003242 4.59145505 3.0469921 3.07983398 3.14550781 C-23.67142614 4.88571591 -23.67142614 4.88571591 -28 2 C-18.66013591 0.79485625 -9.39792784 0.90786345 0 1 C0 0.67 0 0.34 0 0 Z " fill="#1A5C8D" transform="translate(249,273)"/>
<path d="M0 0 C0.66 0 1.32 0 2 0 C1.625 1.9375 1.625 1.9375 1 4 C0.01 4.495 0.01 4.495 -1 5 C-2.15681364 10.14101356 -2.15681364 10.14101356 -1 15 C-1.99 15.33 -2.98 15.66 -4 16 C-4 16.99 -4 17.98 -4 19 C-4.66 19 -5.32 19 -6 19 C-6.66 27.58 -7.32 36.16 -8 45 C-8.33 45 -8.66 45 -9 45 C-9 42.36 -9 39.72 -9 37 C-9.66 37 -10.32 37 -11 37 C-9.62123503 23.88359111 -7.4651059 11.19765885 0 0 Z " fill="#155E99" transform="translate(89,99)"/>
<path d="M0 0 C0 0.33 0 0.66 0 1 C-1.28132813 1.13535156 -2.56265625 1.27070312 -3.8828125 1.41015625 C-15.57612415 2.80596673 -28.71943751 4.60199137 -37 14 C-37.66 13.67 -38.32 13.34 -39 13 C-38.814375 12.38125 -38.62875 11.7625 -38.4375 11.125 C-37.76313824 8.95839822 -37.76313824 8.95839822 -39 7 C-36.69 7 -34.38 7 -32 7 C-31.67 6.34 -31.34 5.68 -31 5 C-22.72574525 -0.25976495 -9.4266418 -2.13083795 0 0 Z " fill="#185D8F" transform="translate(168,90)"/>
<path d="M0 0 C2.7824349 1.39121745 3.55210065 3.30164212 5 6 C5 6.66 5 7.32 5 8 C5.66 8 6.32 8 7 8 C7 8.66 7 9.32 7 10 C7.99 10.33 8.98 10.66 10 11 C10.556875 11.598125 11.11375 12.19625 11.6875 12.8125 C16.85114763 17.69703154 23.18184556 19.53896691 30 21 C29.67 21.99 29.34 22.98 29 24 C26.36 23.67 23.72 23.34 21 23 C21 23.66 21 24.32 21 25 C20.01 24.67 19.02 24.34 18 24 C18.33 23.01 18.66 22.02 19 21 C18.071875 20.566875 17.14375 20.13375 16.1875 19.6875 C13.48670268 18.25766613 11.99855536 17.1984109 10 15 C9.34 14.67 8.68 14.34 8 14 C8 13.34 8 12.68 8 12 C7.360625 11.731875 6.72125 11.46375 6.0625 11.1875 C4 10 4 10 3 7 C2.01 6.34 1.02 5.68 0 5 C-0.1875 2.375 -0.1875 2.375 0 0 Z " fill="#135A8A" transform="translate(120,246)"/>
<path d="M0 0 C-0.64324219 0.34667725 -1.28648437 0.69335449 -1.94921875 1.05053711 C-4.96694291 2.67805257 -7.98362361 4.30748796 -11 5.9375 C-12.08893555 6.52563477 -13.17787109 7.11376953 -14.29980469 7.71972656 C-21.30969348 11.51528453 -28.2859529 15.3608088 -35.17578125 19.37084961 C-38.07045914 21.03171081 -40.68568448 22.44214491 -44 23 C-43.67 21.35 -43.34 19.7 -43 18 C-40.69 18 -38.38 18 -36 18 C-36 17.01 -36 16.02 -36 15 C-35.45214844 14.88785156 -34.90429688 14.77570313 -34.33984375 14.66015625 C-26.81142994 12.78723379 -20.81970219 9.13575522 -14.3203125 5.05859375 C-11.89938744 3.55762021 -9.56519625 2.21415322 -7 1 C-6.319375 0.608125 -5.63875 0.21625 -4.9375 -0.1875 C-3 -1 -3 -1 0 0 Z " fill="#C92124" transform="translate(283,193)"/>
<path d="M0 0 C0 0.66 0 1.32 0 2 C17.82 2 35.64 2 54 2 C54 2.33 54 2.66 54 3 C46.39382711 3.15408356 38.78755848 3.30226242 31.18112659 3.4429636 C27.64892606 3.50848535 24.11678815 3.57601847 20.5847168 3.64819336 C16.52142119 3.73113428 12.45800576 3.8052454 8.39453125 3.87890625 C7.1297847 3.90594131 5.86503815 3.93297638 4.56196594 3.96083069 C3.38111923 3.98092697 2.20027252 4.00102325 0.98364258 4.02172852 C-0.05338303 4.04171402 -1.09040863 4.06169952 -2.15885925 4.08229065 C-4.89300722 4.00309893 -7.34198159 3.6234175 -10 3 C-10 2.34 -10 1.68 -10 1 C-6.61981469 -0.04005702 -3.5219721 -0.08004482 0 0 Z " fill="#DAA53D" transform="translate(178,100)"/>
<path d="M0 0 C19.8 0.495 19.8 0.495 40 1 C40 1.66 40 2.32 40 3 C27.13 3 14.26 3 1 3 C0.67 2.01 0.34 1.02 0 0 Z " fill="#045D9F" transform="translate(186,76)"/>
<path d="M0 0 C0 0.66 0 1.32 0 2 C-12.84095804 2.08332273 -25.66364383 1.81967526 -38.5 1.5 C-40.49869367 1.45164713 -42.49739158 1.40346895 -44.49609375 1.35546875 C-49.33078021 1.23898755 -54.16540368 1.12016183 -59 1 C-59 0.67 -59 0.34 -59 0 C-51.72273955 -0.1687803 -44.44532091 -0.32856474 -37.16772461 -0.48217773 C-34.69339556 -0.53545702 -32.2191095 -0.59077471 -29.74487305 -0.64819336 C-26.18287424 -0.73049793 -22.62078377 -0.8054049 -19.05859375 -0.87890625 C-17.95728622 -0.90594131 -16.8559787 -0.93297638 -15.72129822 -0.96083069 C-10.3465595 -1.06463371 -5.29119016 -0.97789887 0 0 Z " fill="#2B6285" transform="translate(331,269)"/>
<path d="M0 0 C7.24079635 -0.02546262 14.48158105 -0.04291406 21.72241211 -0.05493164 C24.18302848 -0.0599444 26.64364189 -0.06675631 29.10424805 -0.07543945 C32.65153739 -0.08763932 36.19878717 -0.09325903 39.74609375 -0.09765625 C40.8370787 -0.10281754 41.92806366 -0.10797882 43.05210876 -0.11329651 C58.77112464 -0.11443768 58.77112464 -0.11443768 63 2 C62.67 3.32 62.34 4.64 62 6 C55.48939189 4.21277424 55.48939189 4.21277424 52.58406067 2.94961548 C49.83572499 1.93963064 47.75989959 1.72546683 44.8425293 1.68115234 C43.34153938 1.65134781 43.34153938 1.65134781 41.81022644 1.62094116 C40.7423439 1.60938995 39.67446136 1.59783875 38.57421875 1.5859375 C37.47149124 1.56657135 36.36876373 1.5472052 35.23262024 1.5272522 C31.71765834 1.46757077 28.20266349 1.42111625 24.6875 1.375 C22.30141817 1.33680974 19.91534997 1.2977574 17.52929688 1.2578125 C11.6863191 1.16187857 5.84325894 1.07679753 0 1 C0 0.67 0 0.34 0 0 Z " fill="#E2B339" transform="translate(266,103)"/>
<path d="M0 0 C0.33 0 0.66 0 1 0 C1.75709811 5.36517972 2.13878201 10.57733758 2.09765625 16 C2.0962413 16.7211499 2.09482635 17.4422998 2.09336853 18.18530273 C2.08783381 20.45691324 2.07529423 22.72842 2.0625 25 C2.05747654 26.55338398 2.05291512 28.10676952 2.04882812 29.66015625 C2.03788589 33.44014328 2.0206676 37.22005414 2 41 C1.67 41 1.34 41 1 41 C1 38.03 1 35.06 1 32 C0.34 32 -0.32 32 -1 32 C-1.02907584 27.6041806 -1.0468244 23.20838601 -1.0625 18.8125 C-1.07087891 17.56662109 -1.07925781 16.32074219 -1.08789062 15.03710938 C-1.09111328 13.83505859 -1.09433594 12.63300781 -1.09765625 11.39453125 C-1.10289307 10.28956299 -1.10812988 9.18459473 -1.11352539 8.04614258 C-1.00901923 5.24200621 -0.64097959 2.72582671 0 0 Z " fill="#0E57AA" transform="translate(79,136)"/>
<path d="M0 0 C0.33 0.99 0.66 1.98 1 3 C-9.64774263 14.5539335 -9.64774263 14.5539335 -17 17 C-19.26171875 16.6171875 -19.26171875 16.6171875 -21 16 C-21 15.34 -21 14.68 -21 14 C-18.36 13.67 -15.72 13.34 -13 13 C-13 12.34 -13 11.68 -13 11 C-12.01 11 -11.02 11 -10 11 C-9.7525 10.071875 -9.505 9.14375 -9.25 8.1875 C-7.91938205 4.79442422 -7.17424904 3.68048479 -4 2 C-2.68 2 -1.36 2 0 2 C0 1.34 0 0.68 0 0 Z " fill="#F6BD26" transform="translate(361,238)"/>
<path d="M0 0 C0.66 0 1.32 0 2 0 C2 0.66 2 1.32 2 2 C2.99 2 3.98 2 5 2 C4.67 2.99 4.34 3.98 4 5 C3.01 4.67 2.02 4.34 1 4 C0.67 4.99 0.34 5.98 0 7 C-0.66 7 -1.32 7 -2 7 C-1.938125 7.94875 -1.87625 8.8975 -1.8125 9.875 C-1.874375 10.90625 -1.93625 11.9375 -2 13 C-2.99 13.66 -3.98 14.32 -5 15 C-5 15.99 -5 16.98 -5 18 C-5.66 18 -6.32 18 -7 18 C-7.33 19.65 -7.66 21.3 -8 23 C-10.475 22.01 -10.475 22.01 -13 21 C-13 19 -13 19 -10.75 16.6875 C-9.38875 15.3571875 -9.38875 15.3571875 -8 14 C-4.15104335 9.8011382 -2.13424031 5.21072502 0 0 Z " fill="#F0BF2A" transform="translate(341,216)"/>
<path d="M0 0 C0.33 0 0.66 0 1 0 C1.01030746 0.8054425 1.02061493 1.61088501 1.03123474 2.44073486 C1.12923237 10.03309169 1.23175005 17.62536767 1.33933926 25.21759415 C1.39449193 29.1207832 1.44789956 33.02397985 1.49731445 36.92724609 C1.5450711 40.69444955 1.59741776 44.46156387 1.65294075 48.22866058 C1.67331317 49.66553272 1.69203457 51.10242926 1.70907402 52.53934479 C1.7332312 54.55265433 1.76381483 56.56588365 1.79467773 58.57910156 C1.81022202 59.72493713 1.8257663 60.87077271 1.84178162 62.05133057 C1.97539254 64.54139804 2.27673381 66.62652159 3 69 C2.01 68.67 1.02 68.34 0 68 C0 45.56 0 23.12 0 0 Z " fill="#225E8C" transform="translate(78,168)"/>
<path d="M0 0 C3.98671063 1.36687222 6.88494633 3.15195093 10 6 C10 6.66 10 7.32 10 8 C11.55855981 9.35712166 11.55855981 9.35712166 13.5 10.625 C14.1496875 11.07101563 14.799375 11.51703125 15.46875 11.9765625 C15.9740625 12.31429687 16.479375 12.65203125 17 13 C15.125 13.625 15.125 13.625 13 14 C12.34 13.34 11.68 12.68 11 12 C7.90073181 12.32198966 7.90073181 12.32198966 5 13 C3.58334842 10.60940046 2.99375975 9.25585041 3.0625 6.4375 C3.25462419 3.92452791 3.25462419 3.92452791 1.5 2.25 C1.005 1.8375 0.51 1.425 0 1 C0 0.67 0 0.34 0 0 Z " fill="#EE0506" transform="translate(237,155)"/>
<path d="M0 0 C0.77214844 0.10183594 1.54429687 0.20367187 2.33984375 0.30859375 C2.90832031 0.39238281 3.47679687 0.47617187 4.0625 0.5625 C2.0625 2.5625 2.0625 2.5625 -0.91845703 2.78955078 C-2.16481934 2.77907715 -3.41118164 2.76860352 -4.6953125 2.7578125 C-5.35836395 2.7549826 -6.02141541 2.75215271 -6.70455933 2.74923706 C-8.82405583 2.73803435 -10.94313104 2.71293051 -13.0625 2.6875 C-14.49869182 2.67747028 -15.93489025 2.66834441 -17.37109375 2.66015625 C-20.89336628 2.638095 -24.41539203 2.60356494 -27.9375 2.5625 C-27.9375 3.2225 -27.9375 3.8825 -27.9375 4.5625 C-29.9175 4.8925 -31.8975 5.2225 -33.9375 5.5625 C-33.2775 5.2325 -32.6175 4.9025 -31.9375 4.5625 C-31.9375 3.9025 -31.9375 3.2425 -31.9375 2.5625 C-33.2575 2.2325 -34.5775 1.9025 -35.9375 1.5625 C-35.24712646 1.53744385 -34.55675293 1.5123877 -33.84545898 1.48657227 C-30.68848591 1.3698434 -27.53175543 1.24746822 -24.375 1.125 C-23.28896484 1.08568359 -22.20292969 1.04636719 -21.08398438 1.00585938 C-14.50266391 0.76477899 -14.50266391 0.76477899 -7.96875 0 C-5.1145732 -0.41194304 -2.84101013 -0.39337063 0 0 Z " fill="#0F629A" transform="translate(251.9375,268.4375)"/>
<path d="M0 0 C3.74944648 0.61765824 6.05293545 2.29756998 9.0625 4.5625 C10.01898438 5.27535156 10.97546875 5.98820313 11.9609375 6.72265625 C12.96382812 7.47417969 13.96671875 8.22570312 15 9 C17.06018783 10.50317409 19.12257999 12.00333317 21.1875 13.5 C22.79166667 14.66666667 24.39583333 15.83333333 26 17 C23.20215289 17 21.0209322 16.62804225 18.3125 16 C17.50425781 15.814375 16.69601563 15.62875 15.86328125 15.4375 C15.24839844 15.293125 14.63351563 15.14875 14 15 C14 14.01 14 13.02 14 12 C13.01 11.67 12.02 11.34 11 11 C10.70351562 10.38511719 10.40703125 9.77023438 10.1015625 9.13671875 C8.67582851 6.37119927 7.00274312 5.4350271 4.375 3.8125 C2.90354087 2.89573919 1.44113794 1.96372393 0 1 C0 0.67 0 0.34 0 0 Z " fill="#D3161A" transform="translate(192,123)"/>
<path d="M0 0 C1.134375 0.020625 2.26875 0.04125 3.4375 0.0625 C3.1075 1.0525 2.7775 2.0425 2.4375 3.0625 C-7.27203473 4.35096906 -16.74253888 5.40307669 -26.5625 5.0625 C-26.5625 4.7325 -26.5625 4.4025 -26.5625 4.0625 C-25.9012915 3.97685791 -25.24008301 3.89121582 -24.55883789 3.80297852 C-21.58030129 3.41470172 -18.60266015 3.0199395 -15.625 2.625 C-14.06362305 2.42293945 -14.06362305 2.42293945 -12.47070312 2.21679688 C-11.48134766 2.08466797 -10.49199219 1.95253906 -9.47265625 1.81640625 C-8.55621338 1.69595947 -7.63977051 1.5755127 -6.69555664 1.45141602 C-3.33799803 0.83923897 -4.00436868 0.07025208 0 0 Z " fill="#F2C02E" transform="translate(315.5625,241.9375)"/>
<path d="M0 0 C1.01771484 0.00902344 2.03542969 0.01804687 3.08398438 0.02734375 C5.57707156 0.05075302 8.06965859 0.083543 10.5625 0.125 C10.5625 0.455 10.5625 0.785 10.5625 1.125 C6.87599888 1.63255197 3.18816225 2.12967512 -0.5 2.625 C-1.53833984 2.76808594 -2.57667969 2.91117187 -3.64648438 3.05859375 C-8.9596591 3.76701705 -14.07710518 4.30748153 -19.4375 4.125 C-18.4375 2.125 -18.4375 2.125 -15.58984375 1.0078125 C-10.45585049 -0.33308735 -5.26754709 -0.0891062 0 0 Z " fill="#115680" transform="translate(211.4375,82.875)"/>
<path d="M0 0 C0.66 0.33 1.32 0.66 2 1 C2 2.65 2 4.3 2 6 C2.66 6 3.32 6 4 6 C4 6.99 4 7.98 4 9 C4.66 9 5.32 9 6 9 C9.19881568 11.42334521 9.93944204 12.67518913 10.6875 16.6875 C10.790625 17.780625 10.89375 18.87375 11 20 C11.33 20.33 11.66 20.66 12 21 C12.04063832 22.66617115 12.042721 24.33388095 12 26 C10.20607816 23.30911724 9.10715694 20.98862913 7.9375 18 C7.59589844 17.13375 7.25429688 16.2675 6.90234375 15.375 C6.22732926 13.59833847 5.60101337 11.80304012 5 10 C4.34 10 3.68 10 3 10 C1.4921875 8.25 1.4921875 8.25 -0.125 6 C-0.66382813 5.2575 -1.20265625 4.515 -1.7578125 3.75 C-2.37269531 2.88375 -2.37269531 2.88375 -3 2 C-2.01 1.34 -1.02 0.68 0 0 Z " fill="#ECC32E" transform="translate(331,107)"/>
<path d="M0 0 C-0.33 0.99 -0.66 1.98 -1 3 C-5.62 3.33 -10.24 3.66 -15 4 C-15 3.67 -15 3.34 -15 3 C-16.65 2.67 -18.3 2.34 -20 2 C-19.67 1.34 -19.34 0.68 -19 0 C-17.824375 0.020625 -16.64875 0.04125 -15.4375 0.0625 C-12.58225325 0.07260707 -10.10294461 -0.13455831 -7.25 -0.5625 C-4.3407947 -0.95412379 -2.71271049 -0.97657578 0 0 Z " fill="#1C5B96" transform="translate(267,76)"/>
<path d="M0 0 C0 0.33 0 0.66 0 1 C-10.02437685 1.72904559 -19.94389808 2.14141393 -30 2 C-30 1.67 -30 1.34 -30 1 C-20.04686212 -0.97650965 -10.0307183 -2.22904851 0 0 Z " fill="#175D8F" transform="translate(206,278)"/>
<path d="M0 0 C3.91841827 1.30613942 6.32640809 2.83129848 9 6 C9 6.66 9 7.32 9 8 C9.639375 8.268125 10.27875 8.53625 10.9375 8.8125 C13 10 13 10 14 13 C10.04322598 11.32598022 7.15535787 8.86850715 4 6 C4 5.34 4 4.68 4 4 C3.34 4 2.68 4 2 4 C1.34 2.68 0.68 1.36 0 0 Z " fill="#145285" transform="translate(90,264)"/>
<path d="M0 0 C0 0.66 0 1.32 0 2 C3.96 2 7.92 2 12 2 C12 2.33 12 2.66 12 3 C9.27119539 3.19555932 6.54228931 3.38170447 3.8125 3.5625 C2.65911133 3.64661133 2.65911133 3.64661133 1.48242188 3.73242188 C-2.54061353 3.99141557 -6.06072372 4.06573607 -10 3 C-10 2.34 -10 1.68 -10 1 C-6.61981469 -0.04005702 -3.5219721 -0.08004482 0 0 Z " fill="#E0AF5E" transform="translate(178,100)"/>
<path d="M0 0 C0 0.33 0 0.66 0 1 C-3.63 1 -7.26 1 -11 1 C-11 1.66 -11 2.32 -11 3 C-12.41543415 3.19658808 -13.83244031 3.38187546 -15.25 3.5625 C-16.03890625 3.66691406 -16.8278125 3.77132812 -17.640625 3.87890625 C-20.04125113 4.00211719 -21.74920877 3.83159765 -24 3 C-24.33 2.34 -24.66 1.68 -25 1 C-16.64399592 -0.10102642 -8.41192037 -0.10094304 0 0 Z " fill="#EDB531" transform="translate(271,95)"/>
<path d="M0 0 C2.171875 -0.328125 2.171875 -0.328125 4.75 -0.25 C5.63945312 -0.22421875 6.52890625 -0.1984375 7.4453125 -0.171875 C10.34543153 0.02324004 13.1553642 0.40112931 16 1 C16 1.33 16 1.66 16 2 C12.00204108 2.95619733 8.29196078 3.1039592 4.1875 3.0625 C3.02605469 3.05347656 1.86460937 3.04445313 0.66796875 3.03515625 C-0.21246094 3.02355469 -1.09289062 3.01195313 -2 3 C-1.34 2.01 -0.68 1.02 0 0 Z " fill="#0A6A98" transform="translate(176,76)"/>
<path d="M0 0 C0 0.66 0 1.32 0 2 C-2.60444348 2.05394705 -5.20776998 2.09364469 -7.8125 2.125 C-8.55048828 2.14175781 -9.28847656 2.15851563 -10.04882812 2.17578125 C-13.91246426 2.21074628 -15.70903668 2.19397555 -19 0 C-12.48755792 -0.69508823 -6.4489191 -1.31909709 0 0 Z " fill="#46728F" transform="translate(331,269)"/>
<path d="M0 0 C0.66 0.99 1.32 1.98 2 3 C1.32788889 5.83747778 0.57330768 8.44554976 -0.375 11.1875 C-0.6225 11.93708984 -0.87 12.68667969 -1.125 13.45898438 C-1.73806985 15.30998373 -2.36749619 17.15555098 -3 19 C-3.66 18.34 -4.32 17.68 -5 17 C-4.74344034 10.84256813 -2.42478158 5.60519277 0 0 Z " fill="#195986" transform="translate(118,115)"/>
<path d="M0 0 C1.65 0 3.3 0 5 0 C4 3 4 3 1.78515625 4.38671875 C0.43744141 5.03060547 0.43744141 5.03060547 -0.9375 5.6875 C-1.83339844 6.12449219 -2.72929687 6.56148437 -3.65234375 7.01171875 C-6 8 -6 8 -8 8 C-7.67 6.35 -7.34 4.7 -7 3 C-4.69 3 -2.38 3 0 3 C0 2.01 0 1.02 0 0 Z " fill="#E00E0D" transform="translate(247,208)"/>
<path d="M0 0 C3.48331435 3.01887244 4.79157144 5.56909529 6 10 C5.01 10 4.02 10 3 10 C3 10.66 3 11.32 3 12 C2.34 12 1.68 12 1 12 C0.34 10.68 -0.32 9.36 -1 8 C-0.34 7.67 0.32 7.34 1 7 C0.67 4.69 0.34 2.38 0 0 Z " fill="#F4BC1D" transform="translate(361,106)"/>
<path d="M0 0 C1.5625 1.75 1.5625 1.75 3 4 C2.6875 6.25 2.6875 6.25 2 8 C2.99 8.33 3.98 8.66 5 9 C4.67 11.31 4.34 13.62 4 16 C1.34183454 12.85853173 -0.03819286 10.00752975 -1 6 C-0.625 2.625 -0.625 2.625 0 0 Z " fill="#115D92" transform="translate(81,238)"/>
<path d="M0 0 C0 0.99 0 1.98 0 3 C-5.28 3 -10.56 3 -16 3 C-16 2.67 -16 2.34 -16 2 C-10.60539047 -0.27141454 -5.73842251 -0.20413361 0 0 Z " fill="#F2B335" transform="translate(240,253)"/>
<path d="M0 0 C0 2.33333333 0 4.66666667 0 7 C-0.66 7 -1.32 7 -2 7 C-2.66 8.65 -3.32 10.3 -4 12 C-6 11 -6 11 -6.83984375 9.171875 C-7 7 -7 7 -5.56640625 5.078125 C-4.90511719 4.47484375 -4.24382812 3.8715625 -3.5625 3.25 C-2.90378906 2.63640625 -2.24507813 2.0228125 -1.56640625 1.390625 C-1.04949219 0.93171875 -0.53257813 0.4728125 0 0 Z " fill="#175E94" transform="translate(99,88)"/>
<path d="M0 0 C-4.62 2.64 -9.24 5.28 -14 8 C-14.33 7.34 -14.66 6.68 -15 6 C-10.8571467 1.22944166 -6.44982352 -2.14994117 0 0 Z " fill="#CB161B" transform="translate(212,232)"/>
<path d="M0 0 C0.66 0.66 1.32 1.32 2 2 C0.35 5.3 -1.3 8.6 -3 12 C-5 9 -5 9 -4.625 5.8125 C-4.41875 4.884375 -4.2125 3.95625 -4 3 C-3.01 3.33 -2.02 3.66 -1 4 C-0.67 2.68 -0.34 1.36 0 0 Z " fill="#F3BF27" transform="translate(368,223)"/>
<path d="M0 0 C4.95 0.33 9.9 0.66 15 1 C14.67 2.65 14.34 4.3 14 6 C9.1008651 4.70022952 4.62440425 3.07626313 0 1 C0 0.67 0 0.34 0 0 Z " fill="#F1C12B" transform="translate(314,103)"/>
<path d="M0 0 C0.66 0 1.32 0 2 0 C2 0.99 2 1.98 2 3 C-3.41538462 6.07692308 -3.41538462 6.07692308 -6.375 5.6875 C-6.91125 5.460625 -7.4475 5.23375 -8 5 C-8 4.34 -8 3.68 -8 3 C-5.36 2.67 -2.72 2.34 0 2 C0 1.34 0 0.68 0 0 Z " fill="#F5C519" transform="translate(348,249)"/>
<path d="M0 0 C1.48285242 0.95262034 2.96118201 1.91228405 4.4375 2.875 C5.67306641 3.67550781 5.67306641 3.67550781 6.93359375 4.4921875 C9 6 9 6 10 8 C8.02 8.99 8.02 8.99 6 10 C5.566875 9.030625 5.13375 8.06125 4.6875 7.0625 C3.2985139 3.72268235 3.2985139 3.72268235 0 3 C0 2.01 0 1.02 0 0 Z " fill="#D31317" transform="translate(220,142)"/>
<path d="M0 0 C-0.66 0.2475 -1.32 0.495 -2 0.75 C-5.19343778 2.08059907 -8.18998807 3.64773733 -11.23046875 5.29296875 C-11.81441406 5.52628906 -12.39835937 5.75960937 -13 6 C-13.66 5.67 -14.32 5.34 -15 5 C-13.73168307 4.18357746 -12.46024069 3.37200895 -11.1875 2.5625 C-10.47980469 2.11003906 -9.77210937 1.65757813 -9.04296875 1.19140625 C-5.62842947 -0.79986426 -3.71173295 -1.15191712 0 0 Z " fill="#1E5F8F" transform="translate(119,79)"/>
<path d="M0 0 C0.33 0 0.66 0 1 0 C1.95619733 3.99795892 2.1039592 7.70803922 2.0625 11.8125 C2.05347656 12.97394531 2.04445313 14.13539063 2.03515625 15.33203125 C2.02355469 16.21246094 2.01195313 17.09289062 2 18 C1.67 18 1.34 18 1 18 C1 15.36 1 12.72 1 10 C0.34 10 -0.32 10 -1 10 C-0.67 6.7 -0.34 3.4 0 0 Z " fill="#0E5482" transform="translate(79,126)"/>
<path d="M0 0 C0.99 0.33 1.98 0.66 3 1 C-2.28571429 7.42857143 -2.28571429 7.42857143 -5 10 C-4.56802365 5.2482602 -3.67230705 3.07999946 0 0 Z " fill="#1B5C81" transform="translate(126,105)"/>
<path d="M0 0 C-0.33 0.99 -0.66 1.98 -1 3 C-4.96 3 -8.92 3 -13 3 C-13 2.67 -13 2.34 -13 2 C-10.69 2 -8.38 2 -6 2 C-6 1.34 -6 0.68 -6 0 C-3.50907189 -1.24546405 -2.58919267 -0.7767578 0 0 Z " fill="#2A5362" transform="translate(267,76)"/>
<path d="M0 0 C1.65 0.33 3.3 0.66 5 1 C1.87511433 3.52394612 -1.31314387 5.39701907 -5 7 C-5.66 6.67 -6.32 6.34 -7 6 C-6.21625 5.566875 -5.4325 5.13375 -4.625 4.6875 C-1.78301625 3.10779753 -1.78301625 3.10779753 0 0 Z " fill="#C8191C" transform="translate(219,224)"/>
<path d="M0 0 C1.98 0 3.96 0 6 0 C6 0.99 6 1.98 6 3 C3.69 3.33 1.38 3.66 -1 4 C-0.67 2.68 -0.34 1.36 0 0 Z " fill="#F9BD01" transform="translate(266,251)"/>
<path d="M0 0 C0.66 0 1.32 0 2 0 C1.625 1.9375 1.625 1.9375 1 4 C0.01 4.495 0.01 4.495 -1 5 C-1.65555119 7.52733235 -1.65555119 7.52733235 -2 10 C-2.99 10.33 -3.98 10.66 -5 11 C-3.04225352 3.16901408 -3.04225352 3.16901408 0 0 Z " fill="#20598A" transform="translate(89,99)"/>
<path d="M0 0 C2.64 0.33 5.28 0.66 8 1 C7.67 2.32 7.34 3.64 7 5 C4.0625 4.1875 4.0625 4.1875 1 3 C0.67 2.01 0.34 1.02 0 0 Z " fill="#105C94" transform="translate(103,275)"/>
<path d="M0 0 C0.66 0 1.32 0 2 0 C2 0.66 2 1.32 2 2 C2.99 2 3.98 2 5 2 C4.67 2.99 4.34 3.98 4 5 C3.01 4.67 2.02 4.34 1 4 C0.67 4.99 0.34 5.98 0 7 C-0.93423645 3.98968256 -1.04449911 3.13349732 0 0 Z " fill="#F7BD19" transform="translate(341,216)"/>
<path d="M0 0 C4.43458973 1.3937282 6.87378374 3.60582235 10 7 C6.01310533 6.72816627 4.43314097 6.45593786 1.625 3.5 C0 1 0 1 0 0 Z " fill="#D0171C" transform="translate(237,155)"/>
<path d="M0 0 C0.99 0.66 1.98 1.32 3 2 C0.69 3.32 -1.62 4.64 -4 6 C-4.66 5.34 -5.32 4.68 -6 4 C-4.04783565 2.04783565 -2.46800047 1.15173355 0 0 Z " fill="#145588" transform="translate(141,93)"/>
<path d="M0 0 C-2.36689329 2.19219402 -3.51727269 2.9871902 -6.796875 3.07421875 C-7.77140625 2.94660156 -8.7459375 2.81898437 -9.75 2.6875 C-10.73484375 2.56761719 -11.7196875 2.44773437 -12.734375 2.32421875 C-13.48203125 2.21722656 -14.2296875 2.11023438 -15 2 C-15 1.67 -15 1.34 -15 1 C-9.92928099 0.28832014 -5.11791642 -0.10662326 0 0 Z " fill="#0C5F96" transform="translate(227,81)"/>
<path d="M0 0 C4.455 2.97 4.455 2.97 9 6 C5.13304322 6 2.4911548 4.58090029 -1 3 C-0.67 2.01 -0.34 1.02 0 0 Z " fill="#CC1A1A" transform="translate(209,134)"/>
<path d="M0 0 C5.66153846 1.47692308 5.66153846 1.47692308 7.375 4.125 C7.684375 5.053125 7.684375 5.053125 8 6 C4.63408134 4.55746343 2.48952921 2.66735273 0 0 Z " fill="#235B87" transform="translate(96,271)"/>
<path d="M0 0 C0.66 0 1.32 0 2 0 C2 0.66 2 1.32 2 2 C3.65 1.67 5.3 1.34 7 1 C4.37801226 3.15377564 2.35595828 4.40072174 -1 5 C-0.67 3.35 -0.34 1.7 0 0 Z " fill="#D31818" transform="translate(240,211)"/>
<path d="M0 0 C1.65 0 3.3 0 5 0 C5 0.33 5 0.66 5 1 C3.35 1 1.7 1 0 1 C0 0.67 0 0.34 0 0 Z " fill="#5D6576" transform="translate(309,267)"/>
<path d="M0 0 C2 1 2 1 2 1 Z " fill="#3F3F3F" transform="translate(320,267)"/>
<path d="M0 0 C2 1 2 1 2 1 Z " fill="#C58C53" transform="translate(256,249)"/>
<path d="" fill="#555555" transform="translate(0,0)"/>
</svg>
